<?xml version="1.0" standalone="no"?>
<!DOCTYPE svg PUBLIC "-//W3C//DTD SVG 20010904//EN"
 "http://www.w3.org/TR/2001/REC-SVG-20010904/DTD/svg10.dtd">
<svg version="1.0" xmlns="http://www.w3.org/2000/svg"
 width="24.000000pt" height="24.000000pt" viewBox="0 0 24.000000 24.000000"
 preserveAspectRatio="xMidYMid meet">

<g transform="translate(0.000000,24.000000) scale(0.100000,-0.100000)"
fill="#000000" stroke="none">
<path d="M36 204 c-20 -20 -20 -48 -1 -68 9 -9 15 -34 15 -65 0 -28 5 -51 10
-51 6 0 10 13 10 29 0 17 5 33 10 36 6 4 10 -8 10 -29 0 -20 5 -36 10 -36 6 0
10 16 10 36 0 21 4 33 10 29 6 -3 10 -19 10 -36 0 -16 5 -29 10 -29 6 0 10 14
10 30 0 17 5 30 10 30 6 0 10 -13 10 -30 0 -16 5 -30 10 -30 6 0 10 17 10 38
0 32 -5 39 -33 52 -20 10 -33 24 -35 39 -4 23 -19 25 -64 6 -14 -5 -18 -2 -18
15 0 13 8 24 20 27 11 3 20 9 20 14 0 15 -27 10 -44 -7z"/>
<path d="M142 174 c6 -72 70 -72 76 0 3 35 2 36 -17 24 -17 -10 -25 -10 -42 0
-19 12 -20 11 -17 -24z m28 -14 c0 -5 -4 -10 -10 -10 -5 0 -10 5 -10 10 0 6 5
10 10 10 6 0 10 -4 10 -10z m40 0 c0 -5 -4 -10 -10 -10 -5 0 -10 5 -10 10 0 6
5 10 10 10 6 0 10 -4 10 -10z"/>
</g>
</svg>
